<svg xmlns="http://www.w3.org/2000/svg" viewBox="0 0 100 100">
  <rect width="100" height="100" rx="18" fill="#0C0B0A"/>
  <g fill="#F1592A">
    <polygon points="47,46 45,8 55,8 53,46"/>
    <polygon points="47,46 45,8 55,8 53,46" transform="rotate(45 50 50)"/>
    <polygon points="47,46 45,8 55,8 53,46" transform="rotate(90 50 50)"/>
    <polygon points="47,46 45,8 55,8 53,46" transform="rotate(135 50 50)"/>
    <polygon points="47,46 45,8 55,8 53,46" transform="rotate(180 50 50)"/>
    <polygon points="47,46 45,8 55,8 53,46" transform="rotate(225 50 50)"/>
    <polygon points="47,46 45,8 55,8 53,46" transform="rotate(270 50 50)"/>
    <polygon points="47,46 45,8 55,8 53,46" transform="rotate(315 50 50)"/>
  </g>
</svg>
